<svg xmlns="http://www.w3.org/2000/svg" viewBox="0 0 1024 512">
  <defs>
    <linearGradient id="ocean" x1="0" x2="1" y1="0" y2="0">
      <stop offset="0" stop-color="#0a1e3a" stop-opacity="1"/>
      <stop offset="0.5" stop-color="#0f3a66" stop-opacity="0.95"/>
      <stop offset="1" stop-color="#0a1e3a" stop-opacity="1"/>
    </linearGradient>
    <linearGradient id="land" x1="0" x2="1" y1="0" y2="1">
      <stop offset="0" stop-color="#6be39d" stop-opacity="0.95"/>
      <stop offset="1" stop-color="#f2d18a" stop-opacity="0.75"/>
    </linearGradient>
    <linearGradient id="ice" x1="0" x2="1" y1="0" y2="0">
      <stop offset="0" stop-color="#e8f6ff" stop-opacity="0.85"/>
      <stop offset="1" stop-color="#e8f6ff" stop-opacity="0.2"/>
    </linearGradient>
  </defs>
  <rect width="1024" height="512" fill="url(#ocean)"/>
  <rect y="0" width="1024" height="42" fill="url(#ice)" opacity="0.45"/>
  <rect y="470" width="1024" height="42" fill="url(#ice)" opacity="0.35"/>
  <g fill="url(#land)" opacity="0.9">
    <path d="M90 210c40-40 90-60 150-62 46-2 78 10 92 30 14 20-4 40-30 48-34 10-68 6-100 18-30 10-44 34-76 50-26 12-52-4-48-30 4-22 12-34 24-46z"/>
    <path d="M360 150c52-30 120-30 168 6 32 24 28 52-6 66-32 12-70-10-102-4-30 6-48 28-60 50-12 22-16 48-44 56-30 10-52-16-42-40 12-32 40-70 86-134z"/>
    <path d="M520 280c60-20 118-6 156 22 30 22 22 54-18 64-44 12-90-16-128 4-34 18-40 54-60 78-20 24-54 30-70 8-18-24-4-58 20-80 30-28 64-46 100-96z"/>
    <path d="M160 320c38-18 78-10 102 18 16 20 10 40-18 50-28 12-56-6-84 10-26 16-34 42-52 64-16 18-44 20-58 4-12-18-2-44 18-62 24-22 44-50 92-84z"/>
    <path d="M720 210c48-26 104-26 138-4 22 16 20 40-6 50-28 12-62-8-88-2-24 6-38 24-50 44-10 18-16 40-38 46-22 6-38-12-32-30 8-22 30-52 76-104z"/>
    <path d="M760 320c32-14 68-8 88 10 14 14 10 32-10 38-20 8-42-6-60 6-16 12-20 30-30 44-10 14-28 16-38 4-8-12-2-28 12-40 16-14 30-32 38-62z"/>
  </g>
  <g fill="none" stroke="#8fe8ff" stroke-opacity="0.35" stroke-width="2">
    <path d="M0 256h1024"/>
    <path d="M0 128h1024"/>
    <path d="M0 384h1024"/>
  </g>
</svg>
