<svg xmlns="http://www.w3.org/2000/svg" viewBox="0 0 1024 512">
  <defs>
    <linearGradient id="ocean" x1="0" x2="1" y1="0" y2="0">
      <stop offset="0" stop-color="#041b3a" stop-opacity="1"/>
      <stop offset="0.5" stop-color="#0a4a7d" stop-opacity="0.95"/>
      <stop offset="1" stop-color="#041b3a" stop-opacity="1"/>
    </linearGradient>
    <linearGradient id="land" x1="0" x2="1" y1="0" y2="1">
      <stop offset="0" stop-color="#4ce38c" stop-opacity="0.95"/>
      <stop offset="1" stop-color="#f4d08b" stop-opacity="0.78"/>
    </linearGradient>
    <linearGradient id="ice" x1="0" x2="1" y1="0" y2="0">
      <stop offset="0" stop-color="#e8f6ff" stop-opacity="0.85"/>
      <stop offset="1" stop-color="#e8f6ff" stop-opacity="0.2"/>
    </linearGradient>
    <linearGradient id="cloud" x1="0" x2="1" y1="0" y2="0">
      <stop offset="0" stop-color="#ffffff" stop-opacity="0.1"/>
      <stop offset="0.5" stop-color="#ffffff" stop-opacity="0.3"/>
      <stop offset="1" stop-color="#ffffff" stop-opacity="0.1"/>
    </linearGradient>
  </defs>

  <rect width="1024" height="512" fill="url(#ocean)"/>
  <rect y="0" width="1024" height="42" fill="url(#ice)" opacity="0.45"/>
  <rect y="470" width="1024" height="42" fill="url(#ice)" opacity="0.35"/>

  <g fill="url(#land)" opacity="0.95">
    <path d="M70 150c52-34 112-52 176-54 64-2 112 14 136 40 22 22 10 48-22 60-40 16-82 8-122 22-36 12-54 36-90 56-34 18-66 2-64-30 2-26 10-42 14-50z"/>
    <path d="M140 260c22-22 54-36 82-32 22 2 32 22 20 38-12 18-32 14-50 20-18 8-26 26-40 38-18 16-44 10-44-10 0-20 12-38 32-54z"/>
    <path d="M180 320c26-18 60-26 90-16 24 8 28 30 8 44-24 16-50 10-74 22-22 12-34 34-52 52-18 16-44 12-46-12-2-22 12-40 28-54 20-18 34-26 46-36z"/>
    <path d="M300 150c40-22 82-32 114-26 34 6 48 30 26 48-22 20-50 12-74 20-26 8-36 30-50 52-14 24-38 32-52 14-14-18-6-40 8-60 14-20 22-28 28-48z"/>
    <path d="M360 220c44-22 100-20 136 6 30 20 22 48-12 58-38 10-76-12-108-2-30 10-42 32-56 56-16 26-40 32-60 10-16-20-8-44 14-64 26-22 46-36 86-64z"/>
    <path d="M520 150c56-28 124-26 168 2 34 22 30 52-8 64-38 12-82-10-114 0-30 10-46 32-58 56-14 24-38 34-60 18-20-14-14-40 6-62 24-26 42-44 66-78z"/>
    <path d="M570 230c48-18 106-10 146 20 30 22 22 52-12 64-40 12-84-12-120 2-34 14-46 42-66 70-18 26-50 30-66 8-14-20 0-48 26-72 30-28 52-40 92-62z"/>
    <path d="M640 320c34-14 70-10 92 8 18 14 14 34-10 42-24 8-46-8-68 6-20 12-28 32-42 48-14 14-34 12-42-6-8-14 2-30 16-42 16-16 30-26 54-56z"/>
    <path d="M780 260c38-20 82-18 110-2 22 12 20 34-6 44-28 10-58-8-84 2-24 10-36 28-50 46-12 16-32 18-42 2-10-16 0-32 12-44 16-14 30-24 60-48z"/>
    <path d="M840 330c32-12 64-8 86 8 14 10 12 26-6 32-20 8-42-4-60 8-18 10-26 26-38 40-12 12-28 10-36-6-8-12 2-26 14-36 14-12 24-20 40-34z"/>
  </g>

  <g fill="url(#cloud)" opacity="0.5">
    <path d="M0 120c140-34 260-24 360 6 110 34 220 38 360 12 120-22 210-18 304 26v26H0z"/>
    <path d="M0 380c140-34 260-24 360 6 110 34 220 38 360 12 120-22 210-18 304 26v22H0z"/>
  </g>
</svg>
