<svg xmlns="http://www.w3.org/2000/svg" viewBox="0 0 512 512">
  <defs>
    <linearGradient id="ocean" x1="0" x2="1" y1="0" y2="1">
      <stop offset="0" stop-color="#4fd7ff" stop-opacity="0.35"/>
      <stop offset="1" stop-color="#ffb454" stop-opacity="0.2"/>
    </linearGradient>
  </defs>
  <circle cx="256" cy="256" r="230" fill="url(#ocean)" opacity="0.45"/>
  <g fill="#cfe9ff" opacity="0.5">
    <path d="M140 180c28-26 54-36 86-40 14-2 32 4 38 18 6 14-5 26-18 32-22 10-52 10-78 20-18 7-22 24-38 32-14 7-30-2-28-18 2-16 14-32 38-44z"/>
    <path d="M300 140c24-18 62-20 86-4 20 14 16 36-6 44-18 6-34-6-52-4-16 2-24 14-30 28-6 16-8 34-24 40-18 6-30-12-24-28 8-22 26-48 50-76z"/>
    <path d="M320 260c26-10 54-4 72 12 16 14 12 32-6 38-22 8-46-8-66 2-18 10-20 30-30 46-10 16-30 20-40 8-12-14-4-34 8-48 14-16 30-28 62-42z"/>
    <path d="M150 300c22-10 44-6 58 10 10 12 6 26-8 32-16 8-34-4-50 4-16 8-20 24-30 36-10 12-26 14-34 4-8-10-2-26 10-38 14-14 26-32 54-48z"/>
  </g>
  <g fill="none" stroke="#ffffff" stroke-opacity="0.35" stroke-width="2">
    <path d="M72 256c30-80 110-136 198-136 88 0 168 56 198 136-30 80-110 136-198 136-88 0-168-56-198-136z"/>
    <path d="M256 40c-48 46-76 124-76 216s28 170 76 216"/>
    <path d="M256 40c48 46 76 124 76 216s-28 170-76 216"/>
  </g>
</svg>
